<?xml version="1.0" standalone="no"?>
<!DOCTYPE svg PUBLIC "-//W3C//DTD SVG 20010904//EN"
 "http://www.w3.org/TR/2001/REC-SVG-20010904/DTD/svg10.dtd">
<svg version="1.0" xmlns="http://www.w3.org/2000/svg"
 width="380.000000pt" height="380.000000pt" viewBox="0 0 380.000000 380.000000"
 preserveAspectRatio="xMidYMid meet">
<metadata>
Created by potrace 1.14, written by Peter Selinger 2001-2017
</metadata>
<g transform="translate(0.000000,380.000000) scale(0.100000,-0.100000)"
fill="#000000" stroke="none">
<path d="M1725 3755 c-210 -17 -425 -69 -545 -131 -25 -13 -97 -48 -160 -80
-63 -31 -133 -71 -155 -88 -22 -18 -67 -51 -100 -73 -77 -52 -222 -193 -266
-258 -18 -27 -54 -70 -80 -95 -46 -43 -181 -260 -230 -369 -38 -83 -79 -214
-90 -286 -6 -38 -17 -78 -24 -90 -46 -70 -62 -509 -25 -695 10 -52 26 -120 35
-150 9 -30 23 -80 31 -110 18 -66 102 -240 115 -240 6 0 7 -4 4 -10 -3 -5 -1
-10 4 -10 6 0 10 -5 9 -12 -2 -7 2 -12 9 -13 6 0 15 -4 20 -9 5 -5 3 -6 -4 -2
-8 4 -13 1 -13 -8 0 -9 5 -16 11 -16 5 0 8 -4 5 -9 -4 -5 -1 -11 4 -13 6 -2
12 -10 14 -18 10 -53 70 -139 210 -305 108 -127 312 -300 431 -365 33 -18 76
-44 95 -56 64 -43 263 -117 410 -154 19 -4 53 -13 75 -20 130 -36 445 -52 610
-29 76 10 215 42 335 77 99 28 274 102 345 146 39 23 90 54 115 68 25 15 70
48 101 75 31 26 83 71 116 98 70 59 193 192 236 255 17 25 48 66 70 92 24 28
36 51 31 59 -4 7 -3 10 2 6 6 -3 43 59 84 139 40 79 78 144 84 144 7 0 6 3 -1
8 -10 6 -8 17 7 47 10 22 21 52 22 66 2 15 10 35 18 44 13 15 12 19 -5 32 -17
13 -17 15 -2 10 9 -4 18 -2 18 3 1 6 2 16 3 23 1 6 -2 18 -7 25 -7 9 -5 11 9
5 17 -6 18 -5 5 11 -8 9 -10 16 -5 15 21 -4 28 2 14 11 -13 9 -13 10 0 10 13
0 13 1 0 10 -12 8 -12 10 -1 10 10 0 11 3 2 14 -9 11 -9 16 0 22 8 5 9 3 4 -6
-5 -8 -4 -11 3 -6 6 3 9 16 7 28 -3 12 0 27 6 35 6 7 9 18 7 25 -3 7 -2 22 2
33 4 11 3 30 -1 43 -6 15 -5 21 1 17 12 -7 7 36 -6 56 -4 7 -3 9 2 6 6 -3 10
29 11 79 0 59 -3 82 -11 77 -6 -4 -2 3 8 15 11 12 14 22 8 22 -7 0 -12 5 -12
11 0 5 4 8 8 5 5 -3 9 1 9 9 0 8 -4 15 -9 15 -4 0 -8 5 -8 11 0 5 5 7 10 4 6
-3 10 1 10 9 0 9 -6 16 -12 16 -9 0 -8 4 2 10 14 9 7 14 -13 11 -5 -1 -6 3 -2
9 3 6 11 8 16 5 5 -4 9 -1 9 4 0 6 -4 11 -9 11 -5 0 -8 8 -7 18 2 9 -2 33 -9
53 -9 25 -10 41 -3 54 7 11 7 16 1 12 -6 -4 -10 5 -10 19 0 15 -4 29 -9 33 -5
3 -11 15 -12 26 -2 11 -9 23 -15 27 -9 6 -8 8 1 8 8 0 10 5 5 13 -8 12 -13 32
-15 55 -1 6 -5 12 -9 12 -5 0 -5 7 -2 17 5 11 3 14 -6 8 -10 -5 -11 -2 -6 14
4 12 2 21 -4 21 -6 0 -7 7 -4 17 4 10 2 14 -5 9 -7 -4 -8 2 -2 23 7 24 5 29
-6 24 -10 -4 -12 0 -8 11 4 10 1 16 -7 16 -7 0 -10 3 -6 6 14 14 -111 232
-193 338 -47 61 -100 131 -117 156 -85 123 -336 336 -485 412 -268 135 -338
161 -573 212 -58 13 -343 39 -371 35 -5 -1 -76 -7 -159 -14z"/>
<path d="M360 3100 c0 -5 7 -10 15 -10 8 0 15 5 15 10 0 6 -7 10 -15 10 -8 0
-15 -4 -15 -10z"/>
<path d="M3410 3088 c0 -4 4 -8 9 -8 5 0 13 -9 16 -20 7 -23 52 -28 52 -5 0 8
-4 12 -9 9 -4 -3 -8 -1 -8 5 0 5 3 11 8 14 4 2 2 2 -5 1 -7 -2 -15 1 -18 6 -7
11 -45 9 -45 -2z m48 -23 c-3 -3 -9 2 -12 12 -6 14 -5 15 5 6 7 -7 10 -15 7
-18z"/>
<path d="M5 2340 c3 -5 8 -10 11 -10 2 0 4 5 4 10 0 6 -5 10 -11 10 -5 0 -7
-4 -4 -10z"/>
<path d="M388 693 c5 -10 7 -24 4 -32 -3 -8 0 -11 6 -7 6 4 16 -3 22 -14 6
-11 16 -20 23 -19 9 0 9 2 0 6 -7 2 -13 14 -13 24 0 11 -4 18 -9 15 -5 -3 -12
5 -15 19 -4 14 -11 25 -17 25 -6 0 -6 -6 -1 -17z"/>
<path d="M450 600 c0 -5 4 -10 9 -10 6 0 13 5 16 10 3 6 -1 10 -9 10 -9 0 -16
-4 -16 -10z"/>
<path d="M470 574 c0 -8 5 -12 10 -9 6 3 10 -3 10 -14 0 -12 6 -20 13 -18 6 1
11 -4 9 -11 -1 -7 5 -23 14 -35 12 -16 15 -17 10 -4 -3 11 -2 16 5 12 5 -4 8
-20 5 -36 -2 -16 0 -27 4 -24 5 3 12 -1 17 -8 9 -16 101 -29 109 -16 3 5 -2 9
-11 9 -8 0 -21 11 -27 25 -6 14 -16 25 -22 26 -32 2 -50 9 -58 23 -5 9 -15 16
-23 16 -8 0 -12 6 -9 14 3 7 -6 25 -19 40 -28 30 -37 32 -37 10z"/>
<path d="M3169 452 c-15 -13 -19 -21 -11 -26 7 -4 12 -2 12 4 0 6 5 8 10 5 6
-3 10 1 10 10 0 9 5 13 10 10 6 -3 10 -1 10 4 0 16 -15 13 -41 -7z"/>
</g>
</svg>
